<svg width="667" height="540" viewBox="0 0 667 540" fill="none" xmlns="http://www.w3.org/2000/svg">
<g filter="url(#filter0_d)">
<path d="M52.1025 69.0426L74.3498 33.0762C83.6675 18.0125 105.534 17.8865 115.025 32.8417L145.615 81.0442C157.119 99.1723 140.853 122.129 119.936 117.285L67.0987 105.049C51.0941 101.343 43.4604 83.014 52.1025 69.0426Z" fill="#00A8E8"/>
</g>
<g filter="url(#filter1_d)">
<path d="M519.382 380.66L579.248 328.581C594.781 315.069 619 326.101 619 346.688V439.894C619 459.215 597.335 470.616 581.41 459.676L521.544 418.549C508.61 409.663 507.543 390.959 519.382 380.66Z" fill="#D12A52"/>
</g>
<defs>
<filter id="filter0_d" x="0.496582" y="1.70148" width="196.93" height="192.24" filterUnits="userSpaceOnUse" color-interpolation-filters="sRGB">
<feFlood flood-opacity="0" result="BackgroundImageFix"/>
<feColorMatrix in="SourceAlpha" type="matrix" values="0 0 0 0 0 0 0 0 0 0 0 0 0 0 0 0 0 0 127 0" result="hardAlpha"/>
<feOffset dy="28"/>
<feGaussianBlur stdDeviation="24"/>
<feColorMatrix type="matrix" values="0 0 0 0 0.189948 0 0 0 0 0.677481 0 0 0 0 0.951719 0 0 0 0.2 0"/>
<feBlend mode="normal" in2="BackgroundImageFix" result="effect1_dropShadow"/>
<feBlend mode="normal" in="SourceGraphic" in2="effect1_dropShadow" result="shape"/>
</filter>
<filter id="filter1_d" x="463.134" y="302.642" width="203.867" height="237.294" filterUnits="userSpaceOnUse" color-interpolation-filters="sRGB">
<feFlood flood-opacity="0" result="BackgroundImageFix"/>
<feColorMatrix in="SourceAlpha" type="matrix" values="0 0 0 0 0 0 0 0 0 0 0 0 0 0 0 0 0 0 127 0" result="hardAlpha"/>
<feOffset dy="28"/>
<feGaussianBlur stdDeviation="24"/>
<feColorMatrix type="matrix" values="0 0 0 0 0.819444 0 0 0 0 0.163889 0 0 0 0 0.321222 0 0 0 0.2 0"/>
<feBlend mode="normal" in2="BackgroundImageFix" result="effect1_dropShadow"/>
<feBlend mode="normal" in="SourceGraphic" in2="effect1_dropShadow" result="shape"/>
</filter>
</defs>
</svg>
