<svg width="228" height="146" viewBox="0 0 228 146" fill="none" xmlns="http://www.w3.org/2000/svg">
<path d="M62.15 29.32V47.21C48.4 38.49 31.32 38.7 31.32 38.7C14 38.7 0 62.06 0 90.88C0 119.7 14 143.07 31.32 143.07H32.15C44.46 142.91 54.53 139.22 62.15 132.13V146H66.26C74.0344 145.997 81.4895 142.907 86.9859 137.409C92.4823 131.911 95.57 124.454 95.57 116.68V0H91.47C83.6939 0 76.2362 3.08906 70.7376 8.58763C65.2391 14.0862 62.15 21.5439 62.15 29.32V29.32ZM59 115.19C57.994 116.221 56.7916 117.039 55.464 117.597C54.1363 118.156 52.7102 118.442 51.27 118.44C46.8373 118.44 42.586 116.68 39.4507 113.546C36.3154 110.413 34.5527 106.163 34.55 101.73V80C34.5632 75.5673 36.3361 71.3213 39.479 68.1953C42.6218 65.0694 46.8773 63.3194 51.31 63.33C52.7335 63.33 54.1431 63.6104 55.4583 64.1551C56.7735 64.6999 57.9684 65.4984 58.975 66.505C59.9816 67.5115 60.7801 68.7065 61.3249 70.0217C61.8696 71.3369 62.15 72.7465 62.15 74.17V107.59C62.1449 110.44 61.0125 113.172 59 115.19V115.19Z" fill="#0F1326"/>
<path d="M108.44 65.67V146H112.54C120.316 146 127.774 142.911 133.272 137.412C138.771 131.914 141.86 124.456 141.86 116.68V36.35H137.76C129.984 36.35 122.526 39.4391 117.028 44.9376C111.529 50.4362 108.44 57.8939 108.44 65.67Z" fill="#0F1326"/>
<path d="M210.6 146C219.669 146 227.02 138.649 227.02 129.58C227.02 120.511 219.669 113.16 210.6 113.16C201.531 113.16 194.18 120.511 194.18 129.58C194.18 138.649 201.531 146 210.6 146Z" fill="#C32236"/>
<path d="M210 69.78V36.35H187.73V0H183.63C175.854 0 168.396 3.08906 162.898 8.58763C157.399 14.0862 154.31 21.5439 154.31 29.32V116.68C154.31 124.456 157.399 131.914 162.898 137.412C168.396 142.911 175.854 146 183.63 146H187.73V69.78H210Z" fill="#0F1326"/>
</svg>
