<svg width="167" height="107" viewBox="0 0 167 107" fill="none" xmlns="http://www.w3.org/2000/svg">
<path d="M45.5483 21.4879V34.5991C35.4712 28.2084 22.9537 28.3623 22.9537 28.3623C10.2603 28.3623 0 45.4823 0 66.6038C0 87.7253 10.2603 104.853 22.9537 104.853H23.562C32.5837 104.735 39.9638 102.031 45.5483 96.835V107H48.5604C54.2581 106.998 59.7218 104.733 63.75 100.704C67.7781 96.6742 70.041 91.2097 70.041 85.5121V0H67.0362C61.3373 0 55.8717 2.2639 51.842 6.29367C47.8122 10.3234 45.5483 15.789 45.5483 21.4879ZM43.2397 84.4201C42.5024 85.1754 41.6213 85.7753 40.6482 86.1844C39.6752 86.5935 38.6301 86.8035 37.5746 86.8019C34.326 86.8019 31.2103 85.5119 28.9125 83.2155C26.6147 80.9191 25.3228 77.8042 25.3209 74.5555V58.6301C25.3306 55.3815 26.6299 52.2697 28.9332 49.9788C31.2365 47.6878 34.3553 46.4053 37.6039 46.4131C38.6472 46.4131 39.6802 46.6186 40.6441 47.0178C41.6079 47.4171 42.4837 48.0022 43.2214 48.7399C43.9591 49.4776 44.5443 50.3534 44.9436 51.3173C45.3428 52.2811 45.5483 53.3142 45.5483 54.3575V78.8502C45.5445 80.9388 44.7146 82.9412 43.2397 84.4201Z" fill="#090B2A"/>
<path d="M79.4731 48.128V107H82.4779C88.1769 107 93.6424 104.736 97.6722 100.706C101.702 96.6766 103.966 91.211 103.966 85.5121V26.6401H100.961C95.2621 26.6401 89.7966 28.904 85.7668 32.9338C81.737 36.9635 79.4731 42.4291 79.4731 48.128Z" fill="#090B2A"/>
<path d="M154.344 107C160.99 107 166.378 101.612 166.378 94.9661C166.378 88.32 160.99 82.9323 154.344 82.9323C147.698 82.9323 142.31 88.32 142.31 94.9661C142.31 101.612 147.698 107 154.344 107Z" fill="#090B2A"/>
<path d="M153.904 51.1401V26.6401H137.583V0H134.578C128.879 0 123.414 2.2639 119.384 6.29367C115.354 10.3234 113.09 15.789 113.09 21.4879V85.5121C113.09 91.211 115.354 96.6766 119.384 100.706C123.414 104.736 128.879 107 134.578 107H137.583V51.1401H153.904Z" fill="#090B2A"/>
</svg>
