<svg width="504" height="324" viewBox="0 0 504 324" fill="none" xmlns="http://www.w3.org/2000/svg">
<path d="M137.922 65.0663V104.767C107.408 85.4162 69.5047 85.8822 69.5047 85.8822C31.0685 85.8822 0 137.722 0 201.679C0 265.636 31.0685 317.498 69.5047 317.498H71.3466C98.6647 317.143 121.012 308.954 137.922 293.22V324H147.043C164.296 323.994 180.84 317.136 193.037 304.935C205.235 292.733 212.087 276.187 212.087 258.934V0H202.988C185.732 0 169.182 6.85518 156.979 19.0575C144.777 31.2598 137.922 47.8096 137.922 65.0663ZM130.932 255.627C128.699 257.914 126.031 259.731 123.084 260.97C120.138 262.208 116.973 262.844 113.777 262.839C103.94 262.839 94.506 258.933 87.5482 251.98C80.5903 245.026 76.6785 235.594 76.6726 225.757V177.534C76.702 167.697 80.6364 158.275 87.6109 151.338C94.5854 144.401 104.029 140.517 113.866 140.541C117.025 140.541 120.153 141.163 123.072 142.372C125.99 143.581 128.642 145.353 130.876 147.586C133.11 149.82 134.882 152.472 136.091 155.391C137.3 158.309 137.922 161.437 137.922 164.596V238.761C137.911 245.086 135.398 251.149 130.932 255.627Z" fill="#D12A52"/>
<path d="M240.648 145.733V324H249.746C267.003 324 283.553 317.145 295.755 304.943C307.957 292.74 314.813 276.19 314.813 258.934V80.6671H305.714C288.457 80.6671 271.907 87.5223 259.705 99.7246C247.503 111.927 240.648 128.477 240.648 145.733Z" fill="#D12A52"/>
<path d="M467.359 324C487.484 324 503.798 307.686 503.798 287.561C503.798 267.436 487.484 251.122 467.359 251.122C447.234 251.122 430.92 267.436 430.92 287.561C430.92 307.686 447.234 324 467.359 324Z" fill="white"/>
<path d="M466.027 154.854V80.6671H416.606V0H407.508C390.251 0 373.701 6.85518 361.499 19.0575C349.297 31.2598 342.441 47.8096 342.441 65.0663V258.934C342.441 276.19 349.297 292.74 361.499 304.943C373.701 317.145 390.251 324 407.508 324H416.606V154.854H466.027Z" fill="#D12A52"/>
</svg>
