<svg width="278" height="167" viewBox="0 0 278 167" fill="none" xmlns="http://www.w3.org/2000/svg">
<path d="M70.0542 33.497V53.9356C54.5555 43.9733 35.3033 44.2133 35.3033 44.2133C15.7805 44.2133 0 70.9012 0 103.827C0 136.753 15.7805 163.452 35.3033 163.452H36.2388C50.1144 163.269 61.4651 159.053 70.0542 150.953V166.799H74.6869C83.4501 166.796 91.8533 163.266 98.0488 156.984C104.244 150.703 107.725 142.184 107.725 133.302V0H103.103C94.338 0 85.9319 3.52914 79.734 9.81104C73.5362 16.0929 70.0542 24.613 70.0542 33.497ZM66.5036 131.6C65.3696 132.778 64.0144 133.713 62.5179 134.351C61.0213 134.988 59.4139 135.316 57.7905 135.313C52.7941 135.313 48.0021 133.302 44.468 129.722C40.934 126.143 38.9471 121.287 38.9441 116.223V91.3969C38.959 86.3327 40.9574 81.4818 44.4999 77.9106C48.0424 74.3393 52.8392 72.34 57.8356 72.3521C59.4402 72.3521 61.029 72.6724 62.5115 73.2948C63.9939 73.9172 65.3409 74.8294 66.4755 75.9794C67.6101 77.1293 68.5101 78.4946 69.1241 79.9971C69.7382 81.4996 70.0542 83.11 70.0542 84.7364V122.917C70.0485 126.173 68.772 129.295 66.5036 131.6Z" fill="white"/>
<path d="M121.625 75.1507V166.799H126.314C135.208 166.799 143.738 163.275 150.027 157.001C156.316 150.728 159.849 142.22 159.849 133.348V41.6995H155.16C146.266 41.6995 137.736 45.2238 131.447 51.4971C125.158 57.7704 121.625 66.2789 121.625 75.1507Z" fill="white"/>
<path d="M258.888 166.799C269.443 166.799 278 158.242 278 147.687C278 137.131 269.443 128.574 258.888 128.574C248.332 128.574 239.775 137.131 239.775 147.687C239.775 158.242 248.332 166.799 258.888 166.799Z" fill="#090B2A"/>
<path d="M239.774 79.721V41.5285H214.761V0H210.156C201.422 0 193.045 3.52914 186.87 9.81104C180.694 16.0929 177.224 24.613 177.224 33.497V133.302C177.224 142.186 180.694 150.706 186.87 156.988C193.045 163.27 201.422 166.799 210.156 166.799H214.761V79.721H239.774Z" fill="white"/>
</svg>
